<svg width="685" height="188" viewBox="0 0 685 188" fill="none" xmlns="http://www.w3.org/2000/svg">
<path d="M29.4924 174.473C24.0855 174.473 19.0882 173.181 14.5005 170.596C10.0766 168.011 6.55387 164.538 3.93232 160.176C1.31077 155.653 0 150.725 0 145.394V0H19.9074V145.394C19.9074 147.979 20.8086 150.241 22.6109 152.179C24.577 153.956 26.8709 154.845 29.4924 154.845H147.462C150.084 154.845 152.296 153.956 154.098 152.179C156.064 150.241 157.047 147.979 157.047 145.394V0H176.955V145.394C176.955 150.725 175.644 155.653 173.022 160.176C170.401 164.538 166.796 168.011 162.208 170.596C157.785 173.181 152.869 174.473 147.462 174.473H29.4924Z" fill="url(#paint0_linear_12_75)"/>
<path d="M204.512 174.473V29.0788C204.512 23.7477 205.822 18.9013 208.444 14.5394C211.066 10.016 214.588 6.46196 219.012 3.87717C223.6 1.29239 228.597 0 234.004 0H351.974C357.381 0 362.296 1.29239 366.72 3.87717C371.308 6.46196 374.912 10.016 377.534 14.5394C380.156 18.9013 381.466 23.7477 381.466 29.0788V174.473H361.559V94.4419L224.419 75.3409V174.473H204.512ZM224.419 75.3409H360.97L361.559 29.0788C361.559 26.4941 360.576 24.3131 358.61 22.5361C356.807 20.5975 354.595 19.6282 351.974 19.6282H234.004C231.383 19.6282 229.089 20.5975 227.123 22.5361C225.32 24.3131 224.419 26.4941 224.419 29.0788V75.3409Z" fill="url(#paint1_linear_12_75)"/>
<path d="M409.469 174.473V0.242322H556.931C562.338 0.242322 567.253 1.61549 571.677 4.36183C576.265 6.94661 579.87 10.4199 582.491 14.7817C585.113 19.1436 586.423 23.9901 586.423 29.3212V80.4515C586.423 85.7826 585.113 90.6291 582.491 94.9909C579.87 99.3527 576.265 102.907 571.677 105.653C567.253 108.238 562.338 109.53 556.931 109.53H429.376V174.473H409.469ZM438.961 89.6598H556.931C559.552 89.6598 561.764 88.7713 563.567 86.9942C565.533 85.2172 566.516 83.0363 566.516 80.4515V29.3212C566.516 26.7364 565.533 24.5555 563.567 22.7784C561.764 20.8398 559.552 19.8705 556.931 19.8705H438.961C436.34 19.8705 434.046 20.8398 432.08 22.7784C430.277 24.5555 429.376 26.7364 429.376 29.3212V80.4515C429.376 83.0363 430.277 85.2172 432.08 86.9942C434.046 88.7713 436.34 89.6598 438.961 89.6598Z" fill="url(#paint2_linear_12_75)"/>
<path d="M448.9 174.473V147.779C448.9 146.499 449.21 145.336 449.83 144.289C450.489 143.204 451.342 142.351 452.389 141.73C453.475 141.071 454.657 140.742 455.937 140.742H474.896V145.511H455.937C455.317 145.511 454.774 145.743 454.308 146.209C453.882 146.635 453.669 147.158 453.669 147.779V174.473H448.9Z" fill="url(#paint3_linear_12_75)"/>
<path d="M485.639 174.473C484.36 174.473 483.177 174.163 482.091 173.543C481.045 172.884 480.192 172.031 479.533 170.984C478.912 169.898 478.602 168.716 478.602 167.436V147.779C478.602 146.499 478.912 145.336 479.533 144.289C480.192 143.204 481.045 142.351 482.091 141.73C483.177 141.071 484.36 140.742 485.639 140.742H505.878C507.196 140.742 508.379 141.071 509.426 141.73C510.511 142.351 511.364 143.204 511.985 144.289C512.644 145.336 512.973 146.499 512.973 147.779V159.992H483.371V167.436C483.371 168.056 483.584 168.599 484.011 169.065C484.476 169.491 485.019 169.704 485.639 169.704H512.973V174.473H485.639ZM483.371 155.223H508.146V147.779C508.146 147.158 507.913 146.635 507.448 146.209C507.022 145.743 506.498 145.511 505.878 145.511H485.639C485.019 145.511 484.476 145.743 484.011 146.209C483.584 146.635 483.371 147.158 483.371 147.779V155.223Z" fill="url(#paint4_linear_12_75)"/>
<path d="M519.044 187.849V140.742H546.378C547.657 140.742 548.821 141.071 549.867 141.73C550.953 142.351 551.806 143.204 552.426 144.289C553.085 145.336 553.415 146.499 553.415 147.779V167.436C553.415 168.716 553.085 169.898 552.426 170.984C551.806 172.031 550.953 172.884 549.867 173.543C548.821 174.163 547.657 174.473 546.378 174.473H523.813V187.849H519.044ZM526.139 169.704H546.378C546.998 169.704 547.522 169.491 547.948 169.065C548.413 168.599 548.646 168.056 548.646 167.436V147.779C548.646 147.158 548.413 146.635 547.948 146.209C547.522 145.743 546.998 145.511 546.378 145.511H526.139C525.519 145.511 524.976 145.743 524.511 146.209C524.045 146.635 523.813 147.158 523.813 147.779V167.436C523.813 168.056 524.045 168.599 524.511 169.065C524.976 169.491 525.519 169.704 526.139 169.704Z" fill="url(#paint5_linear_12_75)"/>
<path d="M564.527 174.473C563.247 174.473 562.065 174.163 560.979 173.543C559.932 172.884 559.079 172.031 558.42 170.984C557.8 169.898 557.49 168.716 557.49 167.436V147.779C557.49 146.499 557.8 145.336 558.42 144.289C559.079 143.204 559.932 142.351 560.979 141.73C562.065 141.071 563.247 140.742 564.527 140.742H584.766C586.084 140.742 587.266 141.071 588.313 141.73C589.399 142.351 590.252 143.204 590.872 144.289C591.531 145.336 591.861 146.499 591.861 147.779V167.436C591.861 168.716 591.531 169.898 590.872 170.984C590.252 172.031 589.399 172.884 588.313 173.543C587.266 174.163 586.084 174.473 584.766 174.473H564.527ZM564.527 169.704H584.766C585.386 169.704 585.909 169.491 586.336 169.065C586.801 168.599 587.034 168.056 587.034 167.436V147.779C587.034 147.158 586.801 146.635 586.336 146.209C585.909 145.743 585.386 145.511 584.766 145.511H564.527C563.906 145.511 563.364 145.743 562.898 146.209C562.472 146.635 562.259 147.158 562.259 147.779V167.436C562.259 168.056 562.472 168.599 562.898 169.065C563.364 169.491 563.906 169.704 564.527 169.704Z" fill="url(#paint6_linear_12_75)"/>
<path d="M597.247 174.473V147.779C597.247 146.499 597.557 145.336 598.178 144.289C598.837 143.204 599.69 142.351 600.737 141.73C601.822 141.071 603.005 140.742 604.284 140.742H623.244V145.511H604.284C603.664 145.511 603.121 145.743 602.656 146.209C602.23 146.635 602.016 147.158 602.016 147.779V174.473H597.247Z" fill="url(#paint7_linear_12_75)"/>
<path d="M634.103 174.473C632.785 174.473 631.583 174.163 630.497 173.543C629.45 172.884 628.617 172.031 627.996 170.984C627.376 169.898 627.066 168.716 627.066 167.436V129.692H631.835V140.742H646.432V145.511H631.835V167.436C631.835 168.056 632.048 168.599 632.475 169.065C632.94 169.491 633.483 169.704 634.103 169.704H646.432V174.473H634.103Z" fill="url(#paint8_linear_12_75)"/>
<path d="M657.666 174.473C656.386 174.473 655.204 174.163 654.118 173.543C653.071 172.884 652.218 172.031 651.559 170.984C650.939 169.898 650.629 168.716 650.629 167.436V166.971H655.398V167.436C655.398 168.056 655.611 168.599 656.037 169.065C656.503 169.491 657.046 169.704 657.666 169.704H677.905C678.525 169.704 679.049 169.491 679.475 169.065C679.94 168.599 680.173 168.056 680.173 167.436V162.26C680.173 161.64 679.94 161.116 679.475 160.69C679.049 160.225 678.525 159.992 677.905 159.992H657.666C656.386 159.992 655.204 159.682 654.118 159.061C653.071 158.402 652.218 157.549 651.559 156.502C650.939 155.417 650.629 154.234 650.629 152.955V147.779C650.629 146.499 650.939 145.336 651.559 144.289C652.218 143.204 653.071 142.351 654.118 141.73C655.204 141.071 656.386 140.742 657.666 140.742H677.905C679.223 140.742 680.406 141.071 681.452 141.73C682.538 142.351 683.391 143.204 684.011 144.289C684.67 145.336 685 146.499 685 147.779V148.244H680.173V147.779C680.173 147.158 679.94 146.635 679.475 146.209C679.049 145.743 678.525 145.511 677.905 145.511H657.666C657.046 145.511 656.503 145.743 656.037 146.209C655.611 146.635 655.398 147.158 655.398 147.779V152.955C655.398 153.575 655.611 154.118 656.037 154.583C656.503 155.01 657.046 155.223 657.666 155.223H677.905C679.223 155.223 680.406 155.553 681.452 156.212C682.538 156.832 683.391 157.685 684.011 158.771C684.67 159.817 685 160.981 685 162.26V167.436C685 168.716 684.67 169.898 684.011 170.984C683.391 172.031 682.538 172.884 681.452 173.543C680.406 174.163 679.223 174.473 677.905 174.473H657.666Z" fill="url(#paint9_linear_12_75)"/>
<defs>
<linearGradient id="paint0_linear_12_75" x1="3.42437" y1="79.8761" x2="597.125" y2="79.8761" gradientUnits="userSpaceOnUse">
<stop stop-color="#9C9C9C"/>
<stop offset="0.301057" stop-color="#BCBCBC"/>
<stop offset="0.551876" stop-color="#E8E6E6"/>
<stop offset="0.755666" stop-color="#BCBCBC"/>
<stop offset="1" stop-color="#9C9C9C"/>
</linearGradient>
<linearGradient id="paint1_linear_12_75" x1="3.42437" y1="79.8761" x2="597.125" y2="79.8761" gradientUnits="userSpaceOnUse">
<stop stop-color="#9C9C9C"/>
<stop offset="0.301057" stop-color="#BCBCBC"/>
<stop offset="0.551876" stop-color="#E8E6E6"/>
<stop offset="0.755666" stop-color="#BCBCBC"/>
<stop offset="1" stop-color="#9C9C9C"/>
</linearGradient>
<linearGradient id="paint2_linear_12_75" x1="3.42437" y1="79.8761" x2="597.125" y2="79.8761" gradientUnits="userSpaceOnUse">
<stop stop-color="#9C9C9C"/>
<stop offset="0.301057" stop-color="#BCBCBC"/>
<stop offset="0.551876" stop-color="#E8E6E6"/>
<stop offset="0.755666" stop-color="#BCBCBC"/>
<stop offset="1" stop-color="#9C9C9C"/>
</linearGradient>
<linearGradient id="paint3_linear_12_75" x1="450.278" y1="156.317" x2="689.308" y2="156.317" gradientUnits="userSpaceOnUse">
<stop stop-color="#9C9C9C"/>
<stop offset="0.301057" stop-color="#BCBCBC"/>
<stop offset="0.551876" stop-color="#E8E6E6"/>
<stop offset="0.755666" stop-color="#BCBCBC"/>
<stop offset="1" stop-color="#9C9C9C"/>
</linearGradient>
<linearGradient id="paint4_linear_12_75" x1="450.278" y1="156.317" x2="689.308" y2="156.317" gradientUnits="userSpaceOnUse">
<stop stop-color="#9C9C9C"/>
<stop offset="0.301057" stop-color="#BCBCBC"/>
<stop offset="0.551876" stop-color="#E8E6E6"/>
<stop offset="0.755666" stop-color="#BCBCBC"/>
<stop offset="1" stop-color="#9C9C9C"/>
</linearGradient>
<linearGradient id="paint5_linear_12_75" x1="450.278" y1="156.317" x2="689.308" y2="156.317" gradientUnits="userSpaceOnUse">
<stop stop-color="#9C9C9C"/>
<stop offset="0.301057" stop-color="#BCBCBC"/>
<stop offset="0.551876" stop-color="#E8E6E6"/>
<stop offset="0.755666" stop-color="#BCBCBC"/>
<stop offset="1" stop-color="#9C9C9C"/>
</linearGradient>
<linearGradient id="paint6_linear_12_75" x1="450.278" y1="156.317" x2="689.308" y2="156.317" gradientUnits="userSpaceOnUse">
<stop stop-color="#9C9C9C"/>
<stop offset="0.301057" stop-color="#BCBCBC"/>
<stop offset="0.551876" stop-color="#E8E6E6"/>
<stop offset="0.755666" stop-color="#BCBCBC"/>
<stop offset="1" stop-color="#9C9C9C"/>
</linearGradient>
<linearGradient id="paint7_linear_12_75" x1="450.278" y1="156.317" x2="689.308" y2="156.317" gradientUnits="userSpaceOnUse">
<stop stop-color="#9C9C9C"/>
<stop offset="0.301057" stop-color="#BCBCBC"/>
<stop offset="0.551876" stop-color="#E8E6E6"/>
<stop offset="0.755666" stop-color="#BCBCBC"/>
<stop offset="1" stop-color="#9C9C9C"/>
</linearGradient>
<linearGradient id="paint8_linear_12_75" x1="450.278" y1="156.317" x2="689.308" y2="156.317" gradientUnits="userSpaceOnUse">
<stop stop-color="#9C9C9C"/>
<stop offset="0.301057" stop-color="#BCBCBC"/>
<stop offset="0.551876" stop-color="#E8E6E6"/>
<stop offset="0.755666" stop-color="#BCBCBC"/>
<stop offset="1" stop-color="#9C9C9C"/>
</linearGradient>
<linearGradient id="paint9_linear_12_75" x1="450.278" y1="156.317" x2="689.308" y2="156.317" gradientUnits="userSpaceOnUse">
<stop stop-color="#9C9C9C"/>
<stop offset="0.301057" stop-color="#BCBCBC"/>
<stop offset="0.551876" stop-color="#E8E6E6"/>
<stop offset="0.755666" stop-color="#BCBCBC"/>
<stop offset="1" stop-color="#9C9C9C"/>
</linearGradient>
</defs>
</svg>
